<svg xmlns="http://www.w3.org/2000/svg" viewBox="0 0 512 512">
  <defs>
    <linearGradient id="cloud-gradient" x1="0%" y1="0%" x2="100%" y2="100%">
      <stop offset="0%" stop-color="#0066cc" />
      <stop offset="100%" stop-color="#003399" />
    </linearGradient>
  </defs>

  <rect width="512" height="512" rx="100" fill="url(#cloud-gradient)" />

  <path
    d="M 160 320 L 160 180 L 220 180 C 265 180 290 205 290 250 C 290 295 265 320 220 320 L 160 320 Z M 190 290 L 215 290 C 240 290 255 275 255 250 C 255 225 240 210 215 210 L 190 210 L 190 290 Z"
    fill="white"
  />

  <path
    d="M 320 320 L 320 180 L 350 180 L 400 270 L 400 180 L 430 180 L 430 320 L 400 320 L 350 230 L 350 320 Z"
    fill="white"
  />
</svg>
